# xmcd CD database file
# Copyright (C) 1995-1998 Ti Kan
#
# Track frame offsets:
#	183
#	19773
#	39348
#	63283
#	83990
#	102868
#	121148
#	142348
#	162745
#	173745
#	189628
#	202488
#	225895
#	250645
#	272655
#	296648
#
# Disc length: 4051 seconds
#
# Revision: 1
# Processed by: cddbd v1.4PL0 Copyright (c) Steve Scherf et al.
# Submitted via: CDex 1.30Release
#
DISCID=e50fd110
DTITLE=Big Walter 'Shakey' Horton - Live at the El Mocambo
DYEAR=1973
DGENRE=Blues
TTITLE0=Jukin' With Walter
TTITLE1=Have A Good Time
TTITLE2=Lonely Avenue
TTITLE3=Medley: Not That Easy/Ain't That A Shame
TTITLE4=Walter's Swing
TTITLE5=Can't Hold Out Much Longer
TTITLE6=Rockin' My Boogie
TTITLE7=Blues With A Feeling
TTITLE8=Kentucky Fried
TTITLE9=That Ain't It
TTITLE10=Easin' In Slow
TTITLE11=Little Boy Blue
TTITLE12=Going Back To Arkansas
TTITLE13=Turkey Scratch
TTITLE14=La Cucharacha
TTITLE15=Sweet Home Chicago
EXTD=YEAR: 1973 ID3G:   0
EXTT0=
EXTT1=
EXTT2=
EXTT3=
EXTT4=
EXTT5=
EXTT6=
EXTT7=
EXTT8=
EXTT9=
EXTT10=
EXTT11=
EXTT12=
EXTT13=
EXTT14=
EXTT15=
PLAYORDER=
